<svg width="100" height="100" viewBox="0 0 100 100" fill="none" xmlns="http://www.w3.org/2000/svg">
<g clip-path="url(#clip0_3597_1374)">
<path d="M77.7781 83.3333H44.4448V61.1111H38.8892V83.3333H22.2225V61.1111H16.667V83.3333C16.667 84.8067 17.2523 86.2198 18.2942 87.2617C19.336 88.3035 20.7491 88.8889 22.2225 88.8889H77.7781C79.2515 88.8889 80.6646 88.3035 81.7065 87.2617C82.7483 86.2198 83.3337 84.8067 83.3337 83.3333V61.1111H77.7781V83.3333Z" fill="#435969"/>
<path d="M93.8613 36.8611L82.5279 14.1944C82.068 13.2688 81.359 12.4899 80.4806 11.9452C79.6022 11.4005 78.5893 11.1116 77.5557 11.1111H22.4446C21.411 11.1116 20.3981 11.4005 19.5197 11.9452C18.6413 12.4899 17.9323 13.2688 17.4724 14.1944L6.13904 36.8611C5.75209 37.6374 5.55231 38.4936 5.55571 39.3611V47.9166C5.55317 49.2147 6.00526 50.4727 6.83348 51.4722C8.05754 52.8753 9.56931 53.9985 11.2661 54.7654C12.9628 55.5323 14.8048 55.925 16.6668 55.9166C19.7051 55.9214 22.6507 54.8708 25.0002 52.9444C27.3496 54.8718 30.2946 55.9253 33.3335 55.9253C36.3724 55.9253 39.3173 54.8718 41.6668 52.9444C44.0163 54.8718 46.9612 55.9253 50.0001 55.9253C53.0391 55.9253 55.984 54.8718 58.3335 52.9444C60.683 54.8718 63.6279 55.9253 66.6668 55.9253C69.7057 55.9253 72.6507 54.8718 75.0001 52.9444C77.6228 55.0978 80.9782 56.1505 84.361 55.8811C87.7437 55.6118 90.8902 54.0413 93.139 51.5C93.9773 50.5043 94.4393 49.2459 94.4446 47.9444V39.3611C94.448 38.4936 94.2482 37.6374 93.8613 36.8611ZM83.3335 50.3611C82.147 50.3583 80.9784 50.072 79.9251 49.526C78.8717 48.98 77.9641 48.1901 77.2779 47.2222L75.0001 44.1111L72.7502 47.2222C72.0509 48.1752 71.1371 48.9502 70.0826 49.4844C69.0282 50.0186 67.8627 50.297 66.6807 50.297C65.4987 50.297 64.3332 50.0186 63.2788 49.4844C62.2243 48.9502 61.3105 48.1752 60.6113 47.2222L58.3335 44.1111L56.0835 47.2222C55.3843 48.1752 54.4704 48.9502 53.416 49.4844C52.3615 50.0186 51.1961 50.297 50.014 50.297C48.832 50.297 47.6666 50.0186 46.6121 49.4844C45.5577 48.9502 44.6438 48.1752 43.9446 47.2222L41.6668 44.1111L39.4168 47.2222C38.7176 48.1752 37.8037 48.9502 36.7493 49.4844C35.6948 50.0186 34.5294 50.297 33.3474 50.297C32.1653 50.297 30.9999 50.0186 29.9454 49.4844C28.891 48.9502 27.9772 48.1752 27.2779 47.2222L25.0002 44.1111L22.7224 47.2222C22.0362 48.1901 21.1286 48.98 20.0752 49.526C19.0219 50.072 17.8533 50.3583 16.6668 50.3611C15.62 50.3738 14.5825 50.1622 13.6243 49.7406C12.666 49.319 11.8091 48.697 11.1113 47.9166V39.3611L22.4446 16.6666H77.5557L88.889 39.3333V47.8333C88.1954 48.6247 87.3412 49.2593 86.3833 49.6952C85.4255 50.131 84.3858 50.358 83.3335 50.3611Z" fill="#435969"/>
</g>
<defs>
<clipPath id="clip0_3597_1374">
<rect width="100" height="100" fill="white"/>
</clipPath>
</defs>
</svg>
