<svg width="25" height="25" viewBox="0 0 25 25" fill="none" xmlns="http://www.w3.org/2000/svg">
<path d="M12.5002 1.14532C6.2291 1.14532 1.14551 6.22892 1.14551 12.5C1.14551 18.7711 6.2291 23.8547 12.5002 23.8547C18.7713 23.8547 23.8549 18.7711 23.8549 12.5C23.8549 6.22892 18.7713 1.14532 12.5002 1.14532ZM13.4807 18.6563V20.2555H11.951V18.6742C9.44082 18.3305 8.3416 16.268 8.3416 16.268L9.9041 14.9609C9.9041 14.9609 10.9018 16.6977 12.7064 16.6977C13.7033 16.6977 14.4596 16.1641 14.4596 15.2524C14.4596 13.1211 8.71738 13.3797 8.71738 9.42579C8.71738 7.70704 10.0768 6.46876 11.9502 6.17579V4.57814H13.4799V6.17579C14.7861 6.34767 16.333 7.03517 16.333 8.51407V9.64845H14.3049V9.09845C14.3049 8.53126 13.5822 8.15314 12.7736 8.15314C11.7424 8.15314 10.9869 8.66876 10.9869 9.39064C10.9869 11.5735 16.7291 11.0406 16.7291 15.1836C16.7291 16.8867 15.4572 18.3633 13.4807 18.6563Z" fill="#262626"/>
</svg>
